<?xml version="1.0" standalone="no"?>
<!DOCTYPE svg PUBLIC "-//W3C//DTD SVG 20010904//EN"
 "http://www.w3.org/TR/2001/REC-SVG-20010904/DTD/svg10.dtd">
<svg version="1.0" xmlns="http://www.w3.org/2000/svg"
 width="700.000000pt" height="700.000000pt" viewBox="0 0 700.000000 700.000000"
 preserveAspectRatio="xMidYMid meet">
<metadata>
Created by potrace 1.14, written by Peter Selinger 2001-2017
</metadata>
<g transform="translate(0.000000,700.000000) scale(0.100000,-0.100000)"
fill="#000000" stroke="none">
<path d="M2215 6990 c-417 -4 -684 -11 -745 -19 -177 -23 -454 -128 -636 -242
-293 -182 -542 -468 -678 -778 -53 -120 -113 -318 -126 -411 -29 -220 -38
-3677 -10 -3965 14 -152 31 -231 80 -376 147 -442 469 -809 885 -1010 147 -71
269 -113 429 -146 172 -35 453 -42 1646 -42 1314 0 2387 14 2501 32 187 31
470 147 657 270 356 235 628 629 733 1062 37 156 41 376 43 2165 1 1804 -2
1931 -43 2105 -86 354 -293 703 -548 922 -279 239 -621 389 -968 424 -134 13
-2267 19 -3220 9z m-340 -1731 c20 -21 45 -136 180 -814 68 -341 140 -696 159
-790 19 -93 60 -298 90 -455 71 -367 97 -476 107 -458 8 15 52 191 238 958
329 1355 379 1552 395 1568 11 12 93 13 477 5 l463 -8 63 -270 c34 -148 106
-452 159 -675 136 -569 137 -574 208 -885 130 -568 170 -726 179 -702 5 12 46
213 93 447 46 234 109 547 139 695 31 149 106 524 168 835 l112 565 370 3
c416 3 533 -2 542 -25 3 -8 -5 -58 -19 -111 -136 -525 -647 -2485 -710 -2722
-44 -168 -86 -330 -93 -360 -7 -30 -29 -116 -50 -191 l-37 -137 -352 -7 c-193
-3 -427 -5 -521 -3 l-170 3 -44 180 c-23 99 -97 397 -162 662 -65 265 -128
524 -139 575 -48 215 -212 868 -220 868 -12 0 -184 -663 -485 -1870 -47 -190
-91 -362 -96 -384 l-10 -38 -510 3 c-439 4 -511 6 -519 19 -24 36 -54 151
-539 2071 -199 784 -361 1433 -361 1442 0 23 49 25 498 22 313 -2 386 -5 397
-16z"/>
</g>
</svg>
